<svg xmlns="http://www.w3.org/2000/svg" viewBox="0 0 200 200" width="200" height="200">
  <rect width="200" height="200" fill="#000000"/>
  <g transform="translate(100, 100)">
    <!-- Lab Dog Head -->
    <path d="M -30 -40 Q -50 -30, -50 -10 L -50 20 Q -50 30, -40 35 L -40 50 L -30 50 L -30 35 Q -25 33, -20 35 L -20 50 L -10 50 L -10 35 Q -5 33, 0 35 L 0 50 L 10 50 L 10 35 Q 20 30, 30 20 L 30 -10 Q 30 -30, 20 -40 Q 10 -45, 0 -45 Q -10 -45, -20 -40 Z" 
          fill="none" stroke="white" stroke-width="4" stroke-linecap="round" stroke-linejoin="round"/>
    <!-- Eye -->
    <circle cx="-20" cy="-15" r="3" fill="white"/>
    <!-- Circuit lines on neck -->
    <line x1="-35" y1="40" x2="-35" y2="55" stroke="white" stroke-width="3" stroke-linecap="round"/>
    <line x1="-15" y1="40" x2="-15" y2="55" stroke="white" stroke-width="3" stroke-linecap="round"/>
    <line x1="5" y1="40" x2="5" y2="55" stroke="white" stroke-width="3" stroke-linecap="round"/>
    <!-- Circuit nodes -->
    <circle cx="-45" cy="25" r="4" fill="none" stroke="white" stroke-width="3"/>
    <line x1="-45" y1="25" x2="-40" y2="30" stroke="white" stroke-width="3"/>
  </g>
</svg>
